<?xml version="1.0" standalone="no"?>
<!DOCTYPE svg PUBLIC "-//W3C//DTD SVG 20010904//EN"
 "http://www.w3.org/TR/2001/REC-SVG-20010904/DTD/svg10.dtd">
<svg version="1.0" xmlns="http://www.w3.org/2000/svg"
 width="865.000000pt" height="1280.000000pt" viewBox="0 0 865.000000 1280.000000"
 preserveAspectRatio="xMidYMid meet">
<g transform="translate(0.000000,1280.000000) scale(0.100000,-0.100000)"
fill="#000000" stroke="none">
<path d="M1930 12790 c-25 -5 -92 -9 -150 -9 -190 -2 -333 -27 -448 -81 -158
-74 -381 -261 -497 -419 -124 -167 -270 -443 -330 -623 -92 -278 -113 -526
-69 -823 25 -174 66 -272 201 -488 156 -250 265 -403 361 -508 38 -41 87 -75
204 -142 270 -153 384 -192 548 -188 171 4 199 4 335 1 217 -4 241 15 256 203
13 149 30 232 73 350 20 55 45 145 57 200 19 90 20 122 15 272 -5 130 -3 190
9 256 23 135 35 163 68 167 66 8 69 -25 32 -288 -14 -100 -25 -222 -25 -285 0
-152 -29 -322 -85 -503 l-47 -153 7 -172 c6 -190 13 -257 23 -257 4 0 35 55
67 122 59 120 61 122 138 179 80 59 87 61 266 100 62 13 60 -5 26 257 -23 183
-24 203 -14 422 7 155 16 249 27 291 l17 61 110 45 c61 25 117 51 126 59 18
16 55 18 64 3 4 -5 -23 -40 -60 -76 -122 -122 -135 -168 -142 -495 -5 -219 -3
-251 11 -273 9 -14 25 -25 36 -25 34 0 105 76 188 199 137 202 206 348 253
534 21 86 22 87 53 87 43 0 209 -30 219 -39 4 -4 -1 -53 -12 -107 -61 -302
-44 -635 48 -906 22 -66 42 -102 82 -150 29 -35 73 -94 97 -133 198 -307 465
-545 787 -701 148 -72 264 -112 421 -146 145 -31 450 -33 584 -5 377 80 700
277 937 572 398 495 521 1218 313 1845 -39 117 -152 346 -222 449 -112 163
-310 329 -505 422 -216 103 -422 149 -708 156 -286 8 -499 -25 -750 -115 -409
-146 -735 -440 -931 -839 -31 -63 -51 -93 -62 -93 -33 1 -271 38 -281 45 -7 4
-11 59 -11 146 0 295 -56 602 -139 767 -56 111 -253 385 -338 469 -63 64 -89
81 -224 148 -222 110 -432 173 -679 205 -117 16 -276 20 -330 10z m1237 -1310
c56 -25 135 -104 168 -170 30 -60 59 -182 49 -212 -5 -18 -11 -19 -62 -13 -72
9 -85 19 -77 61 5 29 1 37 -37 72 -73 67 -163 142 -171 142 -5 0 -33 -7 -62
-15 -53 -16 -105 -61 -176 -153 -23 -31 -27 -32 -73 -26 -52 8 -67 25 -44 52
9 9 27 43 41 74 76 169 285 258 444 188z"/>
<path d="M3634 9628 c-70 -106 -137 -209 -149 -228 -17 -26 -38 -117 -83 -350
l-61 -315 -7 -365 c-4 -201 -10 -385 -13 -410 l-7 -45 -39 2 c-21 2 -43 7 -48
12 -6 6 1 214 17 538 l25 528 96 303 c52 167 95 305 95 308 0 2 -114 4 -252 4
l-253 0 -175 -111 c-96 -61 -183 -118 -192 -127 -11 -11 -29 -82 -53 -202 -20
-102 -66 -310 -101 -462 -35 -152 -64 -286 -64 -298 0 -24 119 -266 198 -402
38 -65 63 -98 75 -98 9 0 62 7 118 15 55 8 104 13 108 11 12 -8 63 -145 57
-154 -3 -4 -105 -48 -227 -98 l-222 -89 -155 -170 c-85 -93 -158 -179 -163
-190 -5 -11 -19 -119 -33 -240 l-24 -220 18 -325 19 -325 104 -310 c59 -177
152 -426 217 -579 l112 -269 -23 -145 c-13 -80 -29 -150 -35 -157 -7 -6 -139
-60 -295 -120 -253 -96 -318 -126 -589 -270 -286 -151 -326 -176 -645 -400
-187 -131 -342 -239 -343 -241 -2 -1 -20 -153 -39 -337 l-35 -335 61 -228 c33
-126 81 -335 106 -464 24 -129 62 -332 85 -450 l40 -214 0 -452 0 -452 -277
-118 c-228 -96 -306 -134 -431 -212 -121 -75 -151 -98 -146 -111 4 -9 19 -72
33 -140 l26 -124 235 7 c129 4 538 11 908 15 370 5 675 11 678 14 3 2 -62 200
-145 438 l-150 434 -85 427 -85 427 105 314 105 315 -91 287 c-49 157 -90 292
-90 300 0 19 6 20 487 55 l422 31 521 154 c287 84 527 152 533 149 7 -3 158
-209 337 -459 l325 -454 365 -274 365 -274 425 -181 425 -181 820 -236 c451
-129 830 -240 841 -244 16 -7 34 -45 73 -156 28 -80 53 -156 57 -169 4 -19
-28 -52 -225 -227 -173 -153 -231 -210 -231 -227 0 -21 29 -215 33 -218 1 -1
117 -11 257 -23 140 -12 276 -26 301 -32 l46 -10 214 149 c261 182 794 589
793 605 -1 8 -399 607 -429 645 -2 2 -110 31 -241 66 l-239 63 -445 222 -445
223 -181 179 c-99 98 -186 179 -194 179 -7 0 -171 25 -364 55 -193 30 -383 60
-422 66 -40 6 -76 14 -82 18 -6 3 -107 211 -225 461 -206 439 -219 463 -364
685 l-150 230 -113 338 -112 338 -139 217 -139 217 -133 67 c-73 36 -138 72
-144 80 -5 7 -51 134 -102 281 l-91 269 86 451 c105 555 189 1155 198 1412 14
386 19 341 -86 830 l-95 440 9 238 9 239 -113 279 c-62 153 -116 279 -121 279
-4 0 -64 -87 -133 -192z"/>
</g>
</svg>
