<?xml version="1.0" standalone="no"?>
<!DOCTYPE svg PUBLIC "-//W3C//DTD SVG 20010904//EN"
 "http://www.w3.org/TR/2001/REC-SVG-20010904/DTD/svg10.dtd">
<svg version="1.0" xmlns="http://www.w3.org/2000/svg"
 width="1164.000000pt" height="1280.000000pt" viewBox="0 0 1164.000000 1280.000000"
 preserveAspectRatio="xMidYMid meet">
<metadata>
Created by potrace 1.15, written by Peter Selinger 2001-2017
</metadata>
<g transform="translate(0.000000,1280.000000) scale(0.100000,-0.100000)"
fill="#000000" stroke="none">
<path d="M10710 12794 c-153 -28 -246 -55 -425 -124 -106 -40 -112 -41 -161
-29 -71 16 -110 1 -191 -75 l-66 -61 -241 -17 c-234 -16 -243 -16 -306 2 -248
73 -366 83 -657 55 -173 -16 -194 -16 -270 -2 -49 9 -123 34 -180 61 -87 39
-111 46 -208 55 -157 16 -399 14 -488 -3 -162 -31 -271 -91 -497 -271 -190
-152 -278 -203 -442 -256 -134 -44 -133 -43 -113 -90 12 -31 -980 -838 -1210
-984 -93 -59 -160 -90 -290 -135 -457 -159 -719 -368 -1560 -1246 -196 -204
-223 -229 -250 -227 -16 0 -93 4 -170 9 -116 6 -150 4 -197 -10 -31 -9 -62
-16 -70 -16 -8 0 -37 33 -64 73 -27 39 -85 108 -129 153 -88 89 -153 127 -249
145 -144 26 -350 -50 -696 -259 l-165 -99 -159 10 c-265 18 -414 -10 -510 -95
-77 -67 -108 -142 -126 -311 -24 -217 45 -675 133 -885 126 -297 305 -331 764
-147 76 30 145 55 155 55 10 0 78 -15 151 -34 543 -140 718 -123 943 88 l87
81 119 35 119 35 132 255 133 255 404 306 404 305 205 78 c585 223 839 370
1235 716 l125 110 64 0 c35 0 66 -2 68 -4 3 -3 -23 -63 -58 -133 -54 -112
-122 -296 -137 -374 -4 -19 -65 -68 -275 -217 -148 -106 -275 -200 -282 -209
-8 -9 -42 -29 -77 -44 -387 -174 -629 -586 -1085 -1844 -167 -460 -457 -1305
-457 -1329 0 -7 49 -43 109 -79 101 -62 109 -69 115 -104 3 -21 9 -169 13
-330 7 -324 -2 -449 -44 -593 -58 -201 -140 -277 -490 -454 -293 -148 -488
-288 -713 -515 -166 -167 -237 -260 -443 -584 -226 -353 -355 -527 -661 -886
-331 -390 -359 -418 -547 -549 l-173 -119 -38 19 c-93 49 -161 -25 -326 -357
-81 -162 -89 -174 -168 -250 -120 -116 -147 -189 -105 -281 42 -92 216 -224
531 -404 l145 -82 80 -111 c103 -143 239 -281 330 -335 164 -97 312 -125 660
-126 231 -1 257 1 345 23 172 43 264 98 317 189 23 38 28 59 27 107 -1 101
-29 141 -275 385 -123 122 -235 243 -259 279 -112 167 -155 320 -195 681 l-6
56 83 116 c140 197 207 277 358 429 255 257 535 473 1260 971 155 106 281 183
405 248 478 248 679 389 835 585 27 34 99 104 159 154 266 222 394 410 592
874 38 89 74 161 79 159 6 -1 29 -13 50 -27 22 -14 45 -25 52 -25 7 0 141 176
298 391 157 215 290 394 296 399 6 6 42 -33 102 -110 55 -72 99 -120 110 -120
9 0 60 14 112 30 52 16 101 30 109 30 8 0 98 -47 200 -104 259 -144 419 -223
611 -299 215 -86 273 -111 345 -155 87 -51 206 -146 316 -250 l95 -91 -58
-230 c-90 -358 -103 -437 -102 -636 1 -169 1 -171 47 -349 53 -204 72 -302 86
-466 16 -169 13 -712 -5 -1134 -17 -400 -17 -400 -79 -474 -23 -28 -28 -29
-55 -19 -20 7 -38 8 -57 1 -61 -21 -169 -235 -237 -470 -106 -369 -55 -529
186 -580 85 -18 380 -15 583 7 l120 12 190 -46 c396 -95 571 -122 800 -121
262 1 446 43 655 150 278 142 362 306 198 388 -44 22 -65 26 -142 26 -226 1
-314 34 -526 193 -98 75 -596 501 -834 715 l-39 34 0 217 c1 329 18 407 161
721 167 368 229 628 366 1540 20 129 45 282 56 339 95 485 85 679 -48 948 -30
61 -37 84 -31 108 24 104 3 292 -60 531 l-30 112 33 88 c74 199 188 427 534
1064 249 458 346 669 396 861 39 146 48 224 55 494 l7 250 56 190 c31 105 63
232 72 284 18 107 19 255 2 351 l-11 65 57 73 c118 149 155 271 165 545 l6
159 71 47 c39 27 132 83 206 126 181 104 249 153 353 254 182 176 287 389 304
612 16 228 -84 458 -283 650 -115 110 -221 176 -344 213 -54 17 -249 30 -300
20z m-8405 -3333 c58 -27 86 -62 92 -115 5 -42 3 -48 -41 -98 -74 -85 -87
-124 -65 -198 10 -32 8 -42 -17 -91 -42 -80 -39 -118 15 -173 l44 -44 -23 -32
c-28 -39 -37 -103 -20 -135 7 -14 30 -36 51 -50 l37 -27 -24 -35 c-13 -20 -24
-41 -24 -48 0 -16 36 -62 84 -105 l39 -35 -29 -6 c-108 -24 -240 5 -379 81
-116 64 -108 51 -90 160 8 52 15 147 15 211 0 131 -17 204 -75 320 l-34 66 39
71 c87 160 156 249 219 282 47 25 133 25 186 1z m7032 -426 l-29 -270 -103
-275 c-57 -151 -119 -310 -139 -353 -46 -101 -91 -242 -106 -337 -10 -56 -10
-120 -4 -250 5 -96 9 -245 8 -330 0 -148 -2 -159 -32 -249 -18 -52 -49 -125
-69 -163 l-35 -68 -32 43 c-18 23 -59 80 -93 127 -39 55 -194 220 -433 463
l-372 377 78 83 c125 130 209 237 409 522 54 77 223 297 376 490 l277 351 82
12 c83 12 170 44 217 82 14 11 27 19 28 18 1 -2 -11 -124 -28 -273z"/>
</g>
</svg>
